<?xml version="1.0" encoding="UTF-8" standalone="no"?>
<svg
   xmlns:dc="http://purl.org/dc/elements/1.1/"
   xmlns:cc="http://creativecommons.org/ns#"
   xmlns:rdf="http://www.w3.org/1999/02/22-rdf-syntax-ns#"
   xmlns:svg="http://www.w3.org/2000/svg"
   xmlns="http://www.w3.org/2000/svg"
   xmlns:sodipodi="http://sodipodi.sourceforge.net/DTD/sodipodi-0.dtd"
   xmlns:inkscape="http://www.inkscape.org/namespaces/inkscape"
   version="1.0"
   x="0px"
   y="0px"
   viewBox="0 0 101.99975 101.99975"
   enable-background="new 0 0 100 100"
   xml:space="preserve"
   id="svg30"
   sodipodi:docname="noun_675164_cc.svg"
   width="101.99975"
   height="101.99975"
   inkscape:version="0.92.1 r15371"><metadata
     id="metadata36"><rdf:RDF><cc:Work
         rdf:about=""><dc:format>image/svg+xml</dc:format><dc:type
           rdf:resource="http://purl.org/dc/dcmitype/StillImage" /><dc:title></dc:title></cc:Work></rdf:RDF></metadata><defs
     id="defs34" /><sodipodi:namedview
     pagecolor="#ffffff"
     bordercolor="#666666"
     borderopacity="1"
     objecttolerance="10"
     gridtolerance="10"
     guidetolerance="10"
     inkscape:pageopacity="0"
     inkscape:pageshadow="2"
     inkscape:window-width="640"
     inkscape:window-height="480"
     id="namedview32"
     showgrid="false"
     fit-margin-top="10"
     fit-margin-left="10"
     fit-margin-right="10"
     fit-margin-bottom="10"
     inkscape:zoom="1.888"
     inkscape:cx="50.999961"
     inkscape:cy="38.499961"
     inkscape:window-x="0"
     inkscape:window-y="0"
     inkscape:window-maximized="0"
     inkscape:current-layer="svg30" /><polygon
     stroke-miterlimit="10"
     points="20.001,25 15,10 10,25 "
     id="polygon2"
     style="fill:none;stroke:#000000;stroke-width:2;stroke-linecap:round;stroke-linejoin:round;stroke-miterlimit:10"
     transform="translate(0.99996127,0.99978394)" /><polygon
     stroke-miterlimit="10"
     points="75,90 90,84.999 75,79.999 "
     id="polygon4"
     style="fill:none;stroke:#000000;stroke-width:2;stroke-linecap:round;stroke-linejoin:round;stroke-miterlimit:10"
     transform="translate(0.99996127,0.99978394)" /><polygon
     stroke-miterlimit="10"
     points="75,84.998 14.999,84.998 14.999,25 14.999,84.998 "
     id="polygon6"
     style="fill:none;stroke:#000000;stroke-width:2;stroke-linecap:round;stroke-linejoin:round;stroke-miterlimit:10"
     transform="translate(0.99996127,0.99978394)" /><circle
     stroke-miterlimit="10"
     cx="31.000961"
     cy="71.000786"
     r="5"
     id="circle8"
     style="fill:none;stroke:#000000;stroke-width:2;stroke-linecap:round;stroke-linejoin:round;stroke-miterlimit:10" /><path
     stroke-miterlimit="10"
     d="m 44.749961,56.001784 c 0,2.761 -2.237,4.998 -5,4.998 -2.762,0 -4.999,-2.237 -4.999,-4.998 0,-2.764 2.237,-5.003 4.999,-5.003 2.763,0 5,2.239 5,5.003 z"
     id="path10"
     inkscape:connector-curvature="0"
     style="fill:none;stroke:#000000;stroke-width:2;stroke-linecap:round;stroke-linejoin:round;stroke-miterlimit:10" /><path
     stroke-miterlimit="10"
     d="m 55.999961,69.752784 c 0,2.761 -2.235,4.998 -5,4.998 -2.762,0 -4.999,-2.237 -4.999,-4.998 0,-2.764 2.237,-5.003 4.999,-5.003 2.765,0 5,2.239 5,5.003 z"
     id="path12"
     inkscape:connector-curvature="0"
     style="fill:none;stroke:#000000;stroke-width:2;stroke-linecap:round;stroke-linejoin:round;stroke-miterlimit:10" /><path
     stroke-miterlimit="10"
     d="m 61.002961,53.501784 c 0,2.762 -2.239,4.999 -5.003,4.999 -2.759,0 -4.999,-2.237 -4.999,-4.999 0,-2.763 2.24,-5.002 4.999,-5.002 2.764,0 5.003,2.239 5.003,5.002 z"
     id="path14"
     inkscape:connector-curvature="0"
     style="fill:none;stroke:#000000;stroke-width:2;stroke-linecap:round;stroke-linejoin:round;stroke-miterlimit:10" /><path
     stroke-miterlimit="10"
     d="m 53.498961,37.251784 c 0,2.761 -2.235,4.999 -5,4.999 -2.76,0 -4.999,-2.238 -4.999,-4.999 0,-2.764 2.239,-5.003 4.999,-5.003 2.765,0 5,2.239 5,5.003 z"
     id="path16"
     inkscape:connector-curvature="0"
     style="fill:none;stroke:#000000;stroke-width:2;stroke-linecap:round;stroke-linejoin:round;stroke-miterlimit:10" /><path
     stroke-miterlimit="10"
     d="m 78.500961,54.752784 c 0,2.761 -2.235,4.998 -5.002,4.998 -2.761,0 -5,-2.237 -5,-4.998 0,-2.764 2.239,-5.003 5,-5.003 2.767,0 5.002,2.239 5.002,5.003 z"
     id="path18"
     inkscape:connector-curvature="0"
     style="fill:none;stroke:#000000;stroke-width:2;stroke-linecap:round;stroke-linejoin:round;stroke-miterlimit:10" /><path
     stroke-miterlimit="10"
     d="m 71.003961,38.501784 c 0,2.762 -2.239,4.999 -5.003,4.999 -2.759,0 -4.998,-2.237 -4.998,-4.999 0,-2.763 2.239,-5.002 4.998,-5.002 2.764,0 5.003,2.239 5.003,5.002 z"
     id="path20"
     inkscape:connector-curvature="0"
     style="fill:none;stroke:#000000;stroke-width:2;stroke-linecap:round;stroke-linejoin:round;stroke-miterlimit:10" /><circle
     stroke-miterlimit="10"
     cx="83.500961"
     cy="31.001785"
     r="5"
     id="circle22"
     style="fill:none;stroke:#000000;stroke-width:2;stroke-linecap:round;stroke-linejoin:round;stroke-miterlimit:10" /><circle
     stroke-miterlimit="10"
     cx="69.751961"
     cy="21.000784"
     r="5.0009999"
     id="circle24"
     style="fill:none;stroke:#000000;stroke-width:2;stroke-linecap:round;stroke-linejoin:round;stroke-miterlimit:10" /></svg>